<?xml version="1.0" standalone="no"?>
<!DOCTYPE svg PUBLIC "-//W3C//DTD SVG 20010904//EN"
 "http://www.w3.org/TR/2001/REC-SVG-20010904/DTD/svg10.dtd">
<svg version="1.0" xmlns="http://www.w3.org/2000/svg"
 width="750.000000pt" height="750.000000pt" viewBox="0 0 750.000000 750.000000"
 preserveAspectRatio="xMidYMid meet">
<metadata>
Created by potrace 1.11, written by Peter Selinger 2001-2013
</metadata>
<g transform="translate(0.000000,750.000000) scale(0.100000,-0.100000)"
fill="#000000" stroke="none">
<path d="M3550 6999 c-457 -38 -905 -253 -1256 -603 -273 -273 -481 -613 -643
-1049 -65 -176 -101 -294 -171 -567 -33 -126 -73 -259 -90 -296 -37 -83 -138
-235 -217 -329 -148 -176 -281 -346 -338 -434 -123 -187 -203 -381 -241 -586
-26 -135 -26 -393 -1 -518 l18 -88 -36 -59 c-105 -172 -156 -343 -158 -525 -1
-66 2 -133 6 -149 8 -28 10 -26 42 54 19 46 58 121 87 167 52 82 166 211 207
232 19 11 19 10 -3 -41 -13 -29 -38 -104 -55 -167 -57 -207 -117 -291 -319
-454 -187 -151 -268 -251 -313 -385 -41 -122 -25 -301 39 -446 l26 -59 12 79
c15 104 46 174 100 224 24 22 48 40 53 40 16 0 31 -69 31 -140 -1 -126 -57
-240 -194 -393 -43 -48 -77 -89 -75 -91 2 -2 26 -8 53 -15 47 -12 50 -11 77
15 16 15 29 24 29 19 0 -5 5 -4 12 3 8 8 17 8 30 1 11 -6 22 -8 26 -5 3 3 0 6
-7 6 -7 0 -9 4 -6 10 3 5 11 10 16 10 6 0 7 -5 4 -10 -4 -7 3 -9 19 -6 27 5
36 -8 14 -18 -7 -3 -3 -3 10 0 13 3 22 1 22 -6 0 -6 5 -8 13 -4 9 6 9 4 -1 -8
-9 -11 -10 -18 -2 -23 5 -3 10 -1 10 4 0 8 6 7 19 -1 33 -20 221 23 385 88 17
6 18 3 11 -37 -12 -69 -11 -74 11 -75 12 -1 26 -4 33 -8 6 -4 11 -2 11 4 0 6
5 8 11 4 8 -4 7 -9 -2 -15 -8 -5 -9 -9 -4 -9 6 0 16 5 22 11 8 8 14 5 22 -10
10 -18 9 -21 -8 -21 -10 0 -31 6 -45 14 -21 11 -34 11 -57 3 -17 -7 -27 -17
-25 -24 3 -7 2 -12 -2 -11 -26 5 -92 -46 -92 -71 0 -14 -2 -14 -11 -1 -9 12
-10 11 -6 -6 3 -15 0 -21 -12 -20 -11 1 -15 -6 -13 -19 2 -16 1 -17 -7 -5 -5
8 -12 12 -16 9 -30 -31 287 -146 495 -179 109 -17 480 -8 585 14 127 27 267
76 381 131 l105 51 29 -61 c15 -33 33 -79 40 -102 l11 -43 55 0 c131 0 310
144 407 328 l35 66 44 -137 44 -137 35 43 c127 153 210 348 239 564 15 112 8
416 -13 516 l-14 68 32 -31 c69 -67 126 -225 146 -407 7 -58 15 -99 19 -92 23
42 84 224 105 312 36 152 49 291 41 450 -3 75 -5 137 -4 137 2 0 36 -11 76
-25 165 -56 338 -56 503 0 41 14 75 25 77 25 1 0 -1 -62 -4 -137 -12 -247 36
-512 131 -727 l22 -50 12 106 c20 183 68 319 142 402 l37 41 -15 -70 c-23
-113 -28 -431 -9 -547 21 -128 58 -244 112 -348 43 -83 138 -220 153 -220 4 0
17 38 29 84 11 46 30 106 42 133 l21 48 25 -50 c64 -126 161 -231 277 -302 52
-31 73 -38 129 -41 l67 -4 11 43 c7 24 25 72 41 105 l29 61 82 -43 c116 -59
300 -120 435 -144 166 -29 459 -28 610 1 128 24 278 73 405 131 l92 42 -65 29
c-105 47 -168 121 -184 214 -4 24 -5 43 -3 43 1 0 46 -15 99 -34 52 -19 131
-42 175 -52 110 -23 288 -23 384 0 41 10 77 20 79 22 2 2 -30 41 -71 86 -139
153 -198 272 -198 397 0 72 15 141 31 141 22 0 98 -84 118 -130 12 -27 27 -86
34 -132 l14 -83 17 40 c120 272 89 501 -96 701 -24 26 -100 93 -169 149 -206
169 -263 249 -320 456 -17 63 -51 156 -75 207 -42 90 -42 92 -16 73 47 -33
167 -163 211 -228 40 -61 110 -196 126 -245 28 -87 7 198 -26 348 -54 249
-164 438 -440 754 -149 171 -263 353 -325 516 -39 105 -70 250 -98 459 -104
778 -304 1429 -573 1869 -119 192 -280 382 -396 466 -28 20 -72 68 -104 115
-62 89 -188 219 -273 281 -260 192 -604 315 -954 344 -141 11 -166 11 -306 -1z
m1374 -2253 c9 -76 16 -149 16 -162 l0 -23 -57 26 c-36 16 -84 27 -125 31
l-67 5 69 79 c38 44 86 106 107 139 21 32 39 55 40 51 1 -4 9 -70 17 -146z
m-89 -190 c67 -17 112 -42 119 -63 2 -10 8 -43 11 -73 4 -30 18 -107 31 -170
18 -88 21 -116 11 -122 -13 -10 -113 -5 -123 5 -4 3 3 18 15 33 25 32 15 52
-18 34 -20 -10 -27 -6 -65 37 -111 123 -312 177 -463 124 -29 -10 -53 -17 -53
-15 0 1 28 18 63 38 35 19 99 61 143 93 123 89 212 111 329 79z m-558 -234
c-21 -23 -21 -36 -2 -52 13 -11 23 -9 58 10 61 35 182 40 275 11 80 -24 106
-45 70 -57 -13 -4 -86 -8 -163 -8 -130 -1 -145 -3 -204 -28 -95 -41 -164 -97
-195 -159 -14 -29 -22 -57 -18 -61 5 -5 30 -3 56 4 36 10 53 10 78 0 43 -16
63 2 30 26 l-23 18 31 29 c16 16 32 27 34 24 2 -2 13 -25 24 -51 16 -37 30
-52 59 -65 21 -9 59 -34 85 -55 26 -21 50 -38 54 -38 4 0 18 10 30 21 22 21
25 21 48 5 31 -20 50 -20 66 -1 16 19 30 19 30 0 0 -27 27 -27 70 0 28 18 59
27 97 30 97 7 194 72 131 88 l-22 6 24 26 25 26 9 -38 c5 -21 10 -175 10 -343
0 -327 -11 -461 -60 -730 -29 -156 -65 -240 -176 -406 -118 -178 -240 -303
-503 -519 -144 -118 -207 -160 -298 -197 -182 -74 -335 -73 -523 4 -88 36
-156 83 -322 220 -322 265 -488 470 -624 772 -42 93 -51 124 -60 205 -19 180
5 419 52 511 55 108 312 252 685 385 101 36 130 42 151 35 29 -12 48 -4 40 15
-7 20 123 63 134 45 21 -34 35 -145 34 -270 -1 -157 -16 -210 -88 -308 -24
-32 -49 -68 -55 -80 -28 -52 2 -187 46 -210 10 -5 49 -12 87 -15 48 -3 77 -11
98 -27 40 -30 62 -23 66 20 4 32 -2 40 -70 102 l-73 67 0 53 c1 29 11 88 22
130 48 169 50 419 6 530 -8 21 -14 40 -12 42 2 2 49 18 104 36 137 45 381 142
490 195 106 51 103 50 82 27z m492 -136 c9 -11 8 -15 -5 -20 -23 -9 -24 -8
-24 14 0 23 13 26 29 6z m-146 -140 c28 -22 6 -52 -58 -76 l-24 -9 25 36 c13
20 24 42 24 49 0 17 10 17 33 0z m-3578 -754 c-44 -137 -145 -340 -248 -494
-44 -65 -81 -118 -84 -118 -11 0 6 217 22 275 41 154 146 309 271 403 38 28
70 50 71 48 2 -1 -13 -53 -32 -114z m2510 -46 l27 -36 -30 0 c-16 0 -35 7 -42
15 -20 25 -29 84 -17 118 l11 32 12 -46 c6 -26 24 -63 39 -83z m-2365 -2816
c0 -19 -6 -20 -89 -20 -77 0 -90 2 -93 18 -2 9 -5 -5 -5 -32 -1 -30 2 -44 7
-36 6 9 9 6 12 -11 3 -22 8 -24 71 -27 58 -3 67 -5 67 -22 0 -17 -9 -19 -67
-22 l-68 -3 -3 -57 c-3 -54 -5 -58 -27 -58 -24 0 -25 3 -24 63 0 34 3 82 7
107 4 25 5 61 2 82 l-7 36 109 1 c102 1 108 0 108 -19z m170 -65 c18 -9 31
-11 35 -5 3 6 15 10 26 10 18 0 19 -8 19 -105 l0 -105 -37 0 c-21 1 -52 -2
-69 -5 -67 -14 -134 57 -119 126 11 50 59 96 103 98 7 1 26 -6 42 -14z m300 0
c26 -13 50 -42 50 -59 0 -13 -48 -5 -60 9 -16 20 -64 19 -84 -1 -59 -58 10
-155 79 -110 26 17 65 22 65 8 0 -20 -51 -54 -87 -59 -105 -14 -167 98 -101
182 35 45 87 56 138 30z m283 -25 c16 -19 27 -42 27 -60 0 -36 -23 -44 -105
-37 -61 5 -76 -4 -49 -34 20 -23 71 -25 98 -4 30 23 39 6 10 -20 -21 -19 -34
-23 -75 -21 -60 3 -87 26 -95 78 -18 111 115 180 189 98z m-1163 -61 c0 9 6
11 18 6 9 -4 30 -7 46 -6 24 1 27 -1 17 -13 -10 -12 -9 -14 8 -9 15 4 21 1 21
-10 0 -9 7 -20 16 -25 13 -7 14 -13 5 -31 -7 -11 -16 -21 -21 -21 -4 0 -17 -3
-27 -7 -15 -5 -16 -4 -7 8 6 8 13 28 16 45 4 28 1 32 -21 32 -14 0 -27 4 -29
10 -1 5 -11 8 -21 5 -24 -6 -64 15 -55 29 5 7 12 5 21 -7 8 -12 13 -14 13 -6z
m-19 -88 c13 -11 21 -22 18 -26 -4 -3 -19 5 -34 19 -32 30 -19 35 16 7z m69
-11 c8 13 10 13 10 -1 0 -22 -8 -28 -30 -22 -11 3 -16 11 -13 20 5 12 7 12 14
1 7 -11 11 -10 19 2z"/>
<path d="M3981 4153 c-30 -33 -60 -80 -72 -112 -27 -73 -36 -146 -19 -166 27
-32 52 -8 61 59 9 70 38 131 91 191 33 37 39 51 31 64 -19 30 -40 22 -92 -36z"/>
<path d="M3891 3252 c-19 -10 -43 -34 -55 -54 -17 -30 -18 -38 -7 -52 20 -24
36 -20 65 19 31 41 55 44 98 13 23 -16 35 -19 47 -11 28 17 23 40 -13 68 -46
35 -92 41 -135 17z"/>
<path d="M3150 2725 c-18 -22 9 -58 63 -84 97 -47 177 -55 537 -55 360 0 440
8 537 55 54 26 81 62 63 84 -16 19 -46 19 -57 1 -13 -21 -43 -33 -134 -53 -71
-15 -132 -18 -409 -18 -277 0 -338 3 -409 18 -91 20 -121 32 -134 53 -11 18
-41 18 -57 -1z"/>
<path d="M1281 304 c-27 -35 -26 -59 4 -89 30 -31 55 -32 83 -2 27 29 28 71 2
97 -28 28 -64 25 -89 -6z"/>
<path d="M1842 332 c-23 -3 -46 -34 -35 -46 3 -3 30 -6 60 -6 38 0 53 4 53 14
0 25 -39 45 -78 38z"/>
<path d="M229 414 c-5 -15 -8 -29 -5 -31 2 -2 33 -5 67 -6 51 -2 64 1 64 13 0
8 -9 18 -20 21 -11 3 -19 11 -18 17 2 7 -9 6 -32 -4 -43 -18 -46 -18 -39 1 4
8 3 15 0 15 -4 0 -11 -12 -17 -26z"/>
<path d="M205 410 c3 -5 8 -10 11 -10 2 0 4 5 4 10 0 6 -5 10 -11 10 -5 0 -7
-4 -4 -10z"/>
<path d="M574 205 c-16 -12 -17 -14 -2 -15 23 0 48 11 48 21 0 14 -24 11 -46
-6z"/>
</g>
</svg>
