<?xml version="1.0" standalone="no"?>
<!DOCTYPE svg PUBLIC "-//W3C//DTD SVG 20010904//EN"
 "http://www.w3.org/TR/2001/REC-SVG-20010904/DTD/svg10.dtd">
<svg version="1.0" xmlns="http://www.w3.org/2000/svg"
 width="750.000000pt" height="750.000000pt" viewBox="0 0 750.000000 750.000000"
 preserveAspectRatio="xMidYMid meet">
<metadata>
Created by potrace 1.11, written by Peter Selinger 2001-2013
</metadata>
<g transform="translate(0.000000,750.000000) scale(0.100000,-0.100000)"
fill="#000000" stroke="none">
<path d="M3480 6904 c-231 -32 -470 -104 -690 -210 -468 -226 -771 -529 -1036
-1039 -200 -385 -314 -798 -374 -1355 -41 -384 -135 -653 -312 -892 -87 -118
-197 -224 -394 -380 -94 -75 -188 -155 -208 -179 -92 -106 -125 -245 -91 -384
13 -54 68 -186 102 -246 2 -3 -40 -52 -92 -110 -125 -135 -206 -250 -265 -374
-68 -143 -84 -208 -84 -340 0 -143 29 -239 111 -373 l21 -34 -25 -61 c-66
-161 -71 -398 -14 -550 9 -23 13 -26 25 -15 8 7 12 16 10 19 -7 13 53 56 94
68 33 9 52 9 77 1 35 -11 89 -65 80 -79 -8 -15 -45 -5 -70 19 -24 23 -48 26
-135 18 -20 -2 -29 -18 -10 -18 6 0 5 -10 -2 -25 -6 -13 -14 -23 -17 -21 -13
8 -2 -63 15 -100 22 -47 35 -62 51 -57 7 3 21 -1 32 -7 12 -6 21 -7 21 -2 0
11 37 23 43 13 2 -3 3 -1 1 4 -4 23 24 46 52 43 l27 -3 -26 -31 c-26 -30 -83
-54 -71 -30 3 6 0 4 -8 -5 -16 -19 -61 -20 -54 -2 3 7 1 13 -4 13 -5 0 -11 -9
-15 -20 -6 -18 25 -73 79 -143 22 -29 56 -20 108 29 61 57 155 101 239 110 78
8 84 11 65 33 -14 15 -13 17 12 19 21 1 24 0 12 -8 -13 -8 -12 -10 5 -11 11
-1 28 -1 37 0 10 1 18 -3 18 -9 0 -8 6 -8 20 0 11 6 24 9 28 6 5 -3 6 8 4 24
-2 17 -12 32 -23 35 -10 4 -19 9 -19 13 0 4 -19 8 -42 9 -22 1 -48 9 -57 18
-14 14 -14 18 -1 43 21 37 63 56 106 47 35 -6 74 -36 74 -55 0 -13 -47 -13
-55 0 -3 6 -22 10 -41 10 -55 0 -42 -30 20 -46 27 -7 56 -20 65 -30 11 -12 12
-14 2 -9 -10 6 -13 4 -8 -7 3 -9 1 -20 -5 -26 -6 -6 -6 -12 1 -16 6 -4 11 -2
11 5 0 7 3 9 6 6 4 -4 1 -13 -6 -22 -18 -21 -11 -26 62 -35 35 -5 146 -25 248
-45 280 -54 380 -67 550 -67 309 0 545 81 780 269 143 115 298 297 372 438
128 246 153 479 102 950 -14 131 -24 249 -22 263 3 24 8 21 113 -64 140 -115
190 -148 278 -189 146 -67 206 -80 372 -80 142 1 155 2 242 33 161 55 243 105
438 266 l90 75 3 -50 c2 -27 -6 -150 -17 -273 -54 -582 1 -829 247 -1127 200
-241 445 -398 712 -456 111 -24 419 -24 560 0 373 62 438 70 585 71 127 0 162
-3 229 -22 97 -28 173 -63 232 -108 69 -53 82 -48 148 51 195 293 239 543 145
817 l-30 89 34 62 c124 221 125 415 2 672 -57 120 -157 261 -277 390 l-75 80
28 45 c16 25 43 81 61 125 28 72 31 90 31 180 -1 111 -21 184 -73 264 -37 58
-77 96 -215 203 -296 230 -432 383 -550 618 -69 137 -115 290 -180 590 -66
311 -89 406 -155 635 -183 639 -399 1061 -734 1438 -164 184 -390 359 -576
446 -143 67 -444 147 -640 171 -118 14 -414 11 -540 -6z m1238 -1342 c107 -66
201 -182 246 -305 34 -90 53 -214 71 -457 8 -118 20 -248 25 -288 6 -40 10
-77 10 -82 0 -4 -28 21 -62 56 -36 38 -84 75 -117 92 -56 27 -57 27 -251 25
-303 -3 -478 -17 -509 -41 -37 -27 -36 -72 2 -90 24 -11 50 -11 170 2 487 54
606 48 702 -36 23 -21 50 -38 59 -38 10 0 16 -9 16 -22 0 -34 46 -199 74 -266
24 -57 24 -61 15 -202 -19 -288 -76 -681 -124 -844 -52 -181 -157 -396 -267
-551 -75 -105 -236 -276 -351 -372 -219 -184 -257 -213 -322 -251 -214 -125
-443 -134 -662 -26 -85 42 -116 65 -313 230 -171 142 -321 296 -408 419 -111
156 -215 371 -267 550 -50 175 -105 556 -126 872 l-12 179 42 68 c56 92 157
220 221 280 l52 49 162 -7 c88 -3 222 -13 296 -21 74 -7 162 -17 195 -20 76
-8 110 8 110 49 0 19 -9 35 -25 48 -27 20 -114 28 -469 44 -153 6 -154 7 -130
25 63 49 225 120 380 168 199 60 280 89 418 148 343 146 655 345 927 592 l98
89 36 -16 c19 -9 59 -31 88 -50z m671 -1987 c0 -16 -8 -49 -19 -72 -22 -51
-80 -136 -86 -130 -3 3 2 58 11 123 11 84 24 136 43 177 l27 57 12 -62 c7 -35
12 -76 12 -93z m-3216 78 c15 -30 52 -271 43 -280 -7 -7 -85 115 -93 145 -7
30 15 162 28 162 5 0 15 -12 22 -27z m-1090 -885 c-80 -108 -127 -155 -276
-274 -93 -75 -201 -167 -242 -205 l-73 -70 -13 38 c-8 21 -13 80 -14 133 0
125 22 190 76 229 41 30 46 32 271 86 81 20 176 46 210 58 67 25 77 25 61 5z
m5468 -42 c52 -13 147 -34 212 -45 175 -32 221 -61 257 -164 25 -71 27 -194 4
-261 l-17 -48 -66 64 c-91 88 -157 147 -289 258 -61 52 -134 122 -162 156 -47
58 -61 82 -42 70 5 -3 51 -16 103 -30z m-5668 -602 c3 -20 2 -57 -3 -83 -28
-147 -99 -259 -350 -551 -117 -136 -241 -294 -291 -370 l-16 -25 -22 42 c-52
103 -68 269 -36 379 64 225 247 407 580 581 66 34 123 63 126 63 4 0 9 -16 12
-36z m5942 -67 c261 -151 435 -326 494 -498 45 -129 35 -306 -22 -416 l-22
-43 -52 78 c-49 73 -108 146 -324 403 -203 240 -268 359 -277 501 l-5 78 69
-31 c38 -17 101 -49 139 -72z m-5635 -1627 c0 -17 -8 -19 -82 -22 l-83 -3 0
-40 0 -40 68 -3 c59 -3 67 -5 67 -22 0 -18 -7 -20 -66 -20 -57 0 -67 -3 -71
-20 -3 -11 -13 -20 -22 -21 -11 0 -12 -2 -3 -6 10 -4 10 -8 1 -19 -7 -8 -7
-14 -1 -14 5 0 12 -9 15 -20 4 -15 0 -20 -14 -20 -10 0 -19 5 -19 10 0 6 6 10
13 10 8 0 8 3 -2 9 -10 7 -15 42 -19 135 l-5 126 112 0 c104 0 111 -1 111 -20z
m-577 -64 c18 -7 41 -25 50 -39 19 -29 23 -67 6 -67 -6 0 -8 -8 -5 -17 6 -21
-18 -58 -33 -49 -6 4 -6 18 -1 35 13 45 -16 95 -57 99 -44 4 -64 -27 -61 -97
l3 -53 52 5 c58 6 76 -4 38 -21 -15 -7 -25 -8 -25 -2 0 5 -6 7 -13 4 -18 -7
-57 10 -84 35 -45 42 -21 140 40 166 41 18 50 18 90 1z m1044 -1 c29 -12 33
-18 24 -29 -9 -11 -9 -15 1 -19 9 -4 9 -6 1 -6 -6 -1 -19 6 -27 15 -9 8 -16
12 -16 7 0 -4 -4 -2 -9 6 -7 12 -13 12 -40 0 -17 -8 -31 -17 -31 -21 0 -5 -6
-7 -12 -5 -19 3 -11 -63 11 -93 22 -31 54 -37 86 -16 27 17 65 21 65 7 0 -5
-14 -21 -31 -35 -83 -70 -219 17 -179 115 7 16 17 29 22 29 5 0 7 4 4 9 -3 5
1 12 10 15 8 3 12 2 9 -4 -3 -6 -1 -10 6 -10 6 0 9 8 6 19 -8 32 43 40 100 16z
m247 -1 c9 -8 16 -20 16 -25 0 -5 5 -9 11 -9 18 0 38 -32 39 -62 l0 -28 -85 0
c-87 0 -98 -6 -68 -35 16 -17 25 -17 112 1 31 6 32 5 22 -13 -26 -50 -124 -54
-170 -8 -34 33 -34 98 -1 145 35 49 94 65 124 34z m-548 -9 c3 -6 21 -9 42 -7
26 2 33 0 23 -6 -8 -6 -21 -8 -30 -5 -13 4 -13 3 -2 -5 8 -6 21 -8 29 -4 10 3
13 1 8 -6 -4 -7 -2 -12 3 -12 7 0 11 -27 11 -70 0 -54 -4 -72 -15 -76 -8 -4
-21 -2 -28 3 -15 12 -26 11 -55 -5 -18 -11 -23 -10 -28 2 -3 8 -13 17 -21 20
-13 5 -14 4 -3 -9 25 -30 -15 -16 -46 16 -63 66 -18 182 69 177 22 -1 41 -7
43 -13z"/>
<path d="M2915 4318 c-153 -29 -285 -149 -310 -280 -17 -91 102 -181 250 -190
39 -2 50 0 50 12 0 11 -15 17 -55 21 -82 9 -150 51 -150 92 0 31 45 101 82
129 56 42 57 42 47 -3 -19 -82 30 -178 111 -219 34 -18 129 -17 165 2 66 35
106 97 109 169 l1 48 22 -20 c11 -12 32 -41 45 -65 24 -46 43 -59 72 -48 32
12 30 49 -7 106 -43 67 -106 123 -177 156 -50 24 -67 26 -178 27 -114 0 -121
1 -90 14 129 54 349 -7 425 -118 31 -44 53 -53 53 -20 0 30 -96 121 -160 151
-98 46 -195 57 -305 36z"/>
<path d="M4405 4323 c-63 -14 -126 -40 -174 -71 -53 -35 -111 -102 -111 -129
0 -25 29 -13 51 23 67 109 266 171 404 126 l60 -19 -90 5 c-166 9 -285 -44
-377 -166 -49 -65 -59 -100 -33 -122 25 -21 58 -4 84 44 13 25 31 52 41 61 16
15 18 12 23 -35 12 -99 80 -167 178 -176 66 -7 127 21 173 79 28 35 31 45 31
113 0 41 3 74 7 74 5 0 26 -17 49 -37 40 -36 79 -99 79 -127 0 -23 -67 -75
-105 -81 -19 -3 -51 -8 -71 -11 -21 -3 -34 -10 -31 -17 7 -21 115 -9 177 19
102 47 139 102 119 177 -27 100 -95 180 -194 227 -87 41 -214 60 -290 43z"/>
<path d="M3594 3979 c-4 -6 -8 -102 -8 -213 -2 -160 -7 -229 -26 -337 -30
-177 -27 -194 55 -276 35 -35 68 -63 73 -63 5 0 15 7 22 15 10 12 10 21 0 45
-7 16 -16 30 -20 30 -4 0 -24 17 -45 37 l-37 36 5 66 c3 36 13 111 23 166 22
132 26 464 5 488 -16 20 -37 22 -47 6z"/>
<path d="M3442 3278 c-16 -16 -15 -71 2 -112 25 -60 97 -89 111 -45 6 17 0 27
-24 46 -25 20 -31 32 -31 62 0 37 -14 61 -35 61 -6 0 -16 -5 -23 -12z"/>
<path d="M3862 3199 c-50 -25 -72 -60 -52 -84 17 -21 27 -19 62 10 34 29 68
32 102 10 29 -19 56 -10 56 20 0 54 -99 79 -168 44z"/>
<path d="M3151 2726 c-16 -20 27 -69 79 -90 99 -39 213 -51 520 -51 383 0 523
23 585 96 43 52 3 80 -54 38 -68 -50 -296 -74 -620 -66 -254 6 -379 24 -437
63 -40 27 -57 30 -73 10z"/>
<path d="M636 213 c-6 -14 -5 -15 5 -6 7 7 10 15 7 18 -3 3 -9 -2 -12 -12z"/>
<path d="M1842 340 c-12 -5 -30 -7 -40 -4 -13 5 -14 4 -3 -4 17 -12 6 -32 -17
-32 -13 0 -14 -2 -3 -9 11 -7 11 -10 0 -14 -8 -4 20 -4 61 -1 51 3 80 10 90
21 8 9 9 13 3 9 -8 -4 -13 -1 -13 7 0 8 -8 17 -17 21 -10 3 -22 8 -28 10 -5 3
-20 1 -33 -4z"/>
<path d="M1281 304 c-12 -15 -21 -36 -21 -46 0 -23 61 -88 82 -88 10 0 9 3 -2
10 -10 6 -11 10 -2 10 22 0 52 40 52 70 0 64 -71 92 -109 44z"/>
<path d="M250 430 c-9 -6 -10 -10 -3 -10 6 0 15 5 18 10 8 12 4 12 -15 0z"/>
<path d="M850 255 c0 -7 30 -13 34 -7 3 4 -4 9 -15 9 -10 1 -19 0 -19 -2z"/>
</g>
</svg>
